<?xml version="1.0" standalone="no"?>
<!DOCTYPE svg PUBLIC "-//W3C//DTD SVG 20010904//EN"
 "http://www.w3.org/TR/2001/REC-SVG-20010904/DTD/svg10.dtd">
<svg version="1.0" xmlns="http://www.w3.org/2000/svg"
 width="800.000000pt" height="800.000000pt" viewBox="0 0 800.000000 800.000000"
 preserveAspectRatio="xMidYMid meet">
<metadata>
Created by potrace 1.11, written by Peter Selinger 2001-2013
</metadata>
<g transform="translate(0.000000,800.000000) scale(0.100000,-0.100000)"
fill="#000000" stroke="none">
<path d="M990 7253 c0 -5 55 -76 123 -159 206 -254 451 -555 467 -574 18 -22
326 -400 545 -670 88 -109 246 -302 350 -431 378 -464 518 -636 592 -726 41
-51 78 -93 82 -93 18 0 92 62 88 74 -5 12 -74 108 -282 390 -49 67 -180 245
-290 395 -191 260 -442 603 -598 814 -39 54 -88 120 -107 147 -19 27 -93 128
-165 225 -71 97 -160 218 -197 268 -38 51 -107 146 -155 212 -48 66 -91 123
-97 127 -14 10 -356 10 -356 1z"/>
<path d="M6611 7203 c-22 -32 -110 -152 -196 -268 -141 -191 -344 -467 -500
-681 -94 -128 -294 -401 -550 -749 -129 -176 -281 -383 -337 -460 -56 -77
-139 -190 -185 -251 -46 -62 -83 -119 -83 -127 0 -18 89 -72 100 -61 4 5 49
61 100 124 52 63 117 142 144 176 28 33 63 76 78 95 26 34 185 229 527 649 96
118 263 323 370 455 107 132 244 301 305 375 61 75 129 158 151 185 22 28 48
59 57 70 125 149 408 503 408 513 0 9 -41 12 -175 12 l-174 0 -40 -57z"/>
<path d="M3795 6619 c-453 -41 -799 -138 -1164 -325 -192 -98 -346 -198 -334
-217 7 -12 150 -209 298 -411 44 -60 112 -152 150 -205 39 -53 102 -138 140
-190 l70 -95 5 145 5 144 413 3 412 2 0 338 c0 250 3 341 12 350 13 13 331 18
362 6 14 -5 16 -46 16 -350 l0 -344 419 0 c334 0 421 -3 429 -13 7 -8 13 -69
14 -145 l3 -133 155 213 c85 117 188 257 229 313 41 55 97 132 126 170 28 39
75 102 103 140 l52 70 -26 21 c-83 68 -526 304 -569 304 -4 0 -21 6 -38 14
-150 67 -485 152 -692 175 -301 33 -406 37 -590 20z"/>
<path d="M90 6458 c0 -80 3 -173 6 -207 l7 -62 76 -56 c108 -80 157 -116 326
-238 185 -134 338 -246 419 -305 33 -25 126 -92 206 -150 80 -57 177 -127 215
-155 272 -200 1415 -1029 1446 -1049 27 -17 27 -17 64 28 20 25 35 52 33 60
-2 8 -66 66 -143 128 -77 63 -225 184 -330 269 -104 85 -237 193 -295 240 -58
47 -316 257 -575 468 -259 210 -510 415 -559 454 -49 40 -128 104 -175 143
-410 336 -694 566 -706 571 -13 4 -15 -17 -15 -139z"/>
<path d="M7765 6499 c-66 -55 -218 -180 -338 -277 -291 -235 -357 -289 -587
-477 -107 -88 -325 -265 -485 -395 -159 -130 -389 -317 -510 -415 -121 -99
-338 -275 -482 -392 -145 -118 -263 -216 -263 -218 0 -10 72 -105 80 -105 5 0
44 26 87 58 96 71 616 449 1743 1267 234 169 457 331 495 360 39 28 142 104
231 168 l161 117 6 106 c11 178 9 304 -5 304 -7 -1 -67 -46 -133 -101z"/>
<path d="M3855 6098 c-3 -7 -6 -164 -7 -348 l-3 -335 -410 -5 -410 -5 -3 -85
c-2 -47 0 -95 3 -107 l5 -23 408 -2 407 -3 3 -1087 2 -1088 23 -5 c12 -3 72
-5 132 -3 l110 3 5 1090 5 1090 425 5 425 5 0 105 0 105 -425 5 -425 5 -5 345
-5 345 -128 3 c-96 2 -129 -1 -132 -10z"/>
<path d="M1919 5783 c-106 -102 -289 -312 -289 -330 0 -6 17 -25 37 -40 21
-15 47 -36 58 -45 34 -28 525 -428 800 -652 143 -116 291 -237 329 -268 38
-32 73 -58 77 -58 5 0 28 21 51 47 24 26 59 62 78 80 l34 32 -24 33 c-13 18
-76 96 -140 173 -63 77 -124 152 -135 166 -11 15 -117 145 -235 290 -118 145
-286 351 -373 459 -87 107 -163 197 -168 198 -5 2 -51 -36 -100 -85z"/>
<path d="M5870 5743 c-57 -71 -190 -234 -295 -363 -284 -349 -541 -666 -607
-746 -32 -39 -58 -74 -58 -79 0 -8 139 -158 152 -163 4 -2 56 36 115 85 59 48
182 149 274 223 171 138 294 239 479 389 58 47 179 146 270 220 91 73 167 135
169 137 5 5 -37 63 -102 139 -72 84 -273 285 -285 285 -4 0 -55 -57 -112 -127z"/>
<path d="M1402 5112 c-54 -75 -192 -393 -241 -552 -41 -137 -51 -175 -66 -250
-9 -47 -21 -104 -26 -128 -16 -80 -39 -303 -39 -383 l0 -79 813 2 812 3 3 25
c7 64 57 240 88 313 19 45 34 84 34 88 0 8 -197 154 -585 434 -154 111 -196
142 -325 236 -233 171 -439 319 -444 319 -3 0 -13 -12 -24 -28z"/>
<path d="M2996 5132 c-2 -4 10 -26 27 -49 18 -22 86 -115 152 -206 66 -92 124
-166 130 -167 5 0 50 20 100 44 103 49 197 82 305 106 l75 16 0 130 0 129
-392 3 c-215 1 -394 -1 -397 -6z"/>
<path d="M4187 5133 c-4 -3 -7 -62 -7 -129 0 -120 1 -124 23 -128 12 -2 49 -9
82 -16 93 -18 211 -59 314 -108 l94 -46 27 34 c70 88 280 380 280 389 0 12
-801 16 -813 4z"/>
<path d="M6420 5035 c-80 -58 -165 -121 -190 -139 -45 -33 -267 -195 -750
-544 -140 -102 -259 -188 -263 -192 -5 -4 2 -29 16 -56 31 -62 71 -182 87
-259 7 -33 16 -73 19 -90 l7 -30 807 -3 c744 -2 808 -1 814 14 9 24 -14 309
-33 418 -29 160 -88 395 -124 491 -49 128 -93 232 -147 340 -63 128 -80 155
-92 155 -3 0 -71 -48 -151 -105z"/>
<path d="M3693 4790 c-158 -41 -288 -99 -419 -187 -152 -103 -251 -205 -373
-386 -72 -107 -160 -338 -177 -467 l-7 -50 542 0 541 0 -2 552 c-3 483 -5 553
-18 555 -8 1 -48 -7 -87 -17z"/>
<path d="M4175 4798 c-3 -7 -4 -256 -3 -553 l3 -540 550 0 550 0 -3 40 c-4 47
-35 170 -62 241 -133 360 -438 654 -803 773 -89 29 -182 51 -213 51 -8 0 -17
-6 -19 -12z"/>
<path d="M1022 3641 c-11 -6 -11 -40 -2 -182 10 -162 17 -223 40 -339 5 -25
12 -65 16 -90 4 -25 10 -49 14 -55 4 -5 12 -37 19 -70 7 -33 17 -69 21 -80 5
-11 23 -62 40 -114 44 -134 171 -425 192 -441 3 -3 25 -41 49 -85 23 -44 54
-96 69 -115 62 -82 132 -184 140 -206 11 -27 158 -193 270 -303 118 -116 295
-261 430 -351 147 -98 410 -240 444 -240 9 0 36 -9 59 -19 73 -33 170 -71 182
-71 6 0 34 -11 62 -25 28 -14 73 -30 100 -35 26 -5 104 -21 173 -35 69 -15
181 -33 250 -41 69 -8 155 -19 193 -24 87 -13 347 -13 434 0 38 5 122 16 188
24 139 17 317 50 360 66 16 6 55 17 85 25 50 12 171 52 228 76 12 5 32 13 45
18 147 59 345 161 492 254 77 49 142 92 145 96 3 3 41 33 85 66 44 33 90 69
101 80 12 11 62 56 111 100 49 44 131 129 183 189 101 116 142 158 148 151 2
-2 -7 -14 -19 -26 -16 -16 -19 -24 -10 -27 7 -2 20 6 29 19 9 13 33 42 53 64
33 37 109 147 109 159 0 3 30 53 66 112 36 58 63 111 61 117 -2 7 -10 1 -17
-13 -7 -13 -19 -31 -27 -38 -7 -7 -13 -19 -13 -26 0 -7 -9 -21 -20 -31 -17
-16 -20 -16 -20 -2 0 9 4 18 9 22 8 5 62 103 117 215 13 27 46 102 71 160 8
19 19 43 24 52 5 10 9 26 9 36 0 10 4 22 8 28 5 5 14 29 21 54 8 25 22 68 32
95 10 28 25 82 33 120 8 39 20 90 26 115 19 83 42 264 52 413 9 125 9 150 -3
158 -16 10 -2778 13 -2803 3 -14 -5 -16 -45 -16 -339 l0 -332 -52 -7 c-29 -3
-108 -6 -175 -6 l-123 0 -2 343 -3 342 -1385 2 c-762 2 -1391 -1 -1398 -6z
m1668 -149 c79 -38 105 -143 55 -227 -25 -44 -24 -55 5 -55 16 0 18 -52 25
-762 3 -420 5 -833 3 -918 l-3 -155 -149 -3 -149 -3 8 918 c6 768 10 919 21
928 12 8 10 17 -13 50 -59 86 -25 197 72 234 52 21 68 20 125 -7z m-460 -204
c51 -26 90 -84 90 -136 0 -33 -31 -105 -50 -117 -18 -11 -11 -34 13 -37 l22
-3 3 -732 2 -733 -144 0 c-122 0 -145 2 -150 16 -3 9 -3 339 1 735 6 662 8
719 23 719 29 0 31 12 7 44 -63 86 -60 150 10 220 48 48 109 56 173 24z m895
-169 c71 -19 115 -77 115 -149 0 -46 -11 -73 -47 -111 l-24 -27 30 -10 31 -11
-2 -573 -3 -573 -140 0 -140 0 -3 295 c-5 407 7 860 22 860 6 0 18 4 26 10 12
7 10 12 -12 30 -15 11 -34 42 -43 69 -16 48 -15 51 5 100 27 61 59 84 140 100
3 0 23 -4 45 -10z m3338 -1150 c-3 -11 -11 -23 -18 -26 -7 -2 -16 -15 -19 -29
-6 -24 -26 -34 -26 -13 0 9 59 89 66 89 1 0 0 -9 -3 -21z"/>
<path d="M2558 3454 c-83 -44 -72 -175 17 -204 131 -43 224 121 112 198 -38
25 -89 28 -129 6z"/>
<path d="M2532 3168 c-9 -9 -12 -217 -12 -875 0 -842 0 -863 19 -873 21 -11
132 -14 169 -4 l22 6 0 867 c0 661 -3 870 -12 879 -16 16 -170 16 -186 0z"/>
<path d="M2103 3251 c-41 -26 -53 -49 -53 -106 0 -39 5 -52 30 -75 53 -49 128
-45 174 11 80 95 -45 236 -151 170z"/>
<path d="M2073 2963 c-10 -4 -13 -152 -13 -693 0 -618 2 -688 16 -694 29 -11
169 -7 182 6 16 16 17 1339 2 1369 -9 16 -21 19 -93 18 -45 0 -88 -3 -94 -6z"/>
<path d="M3029 3075 c-38 -21 -59 -58 -59 -106 0 -33 6 -47 34 -75 27 -27 42
-34 75 -34 52 0 84 15 104 50 33 56 17 128 -35 160 -38 23 -82 25 -119 5z"/>
<path d="M2986 2765 c-9 -25 -7 -1028 2 -1043 6 -9 34 -12 103 -10 l94 3 0
530 0 530 -96 3 c-81 2 -98 0 -103 -13z"/>
<path d="M7003 3360 c0 -25 2 -35 4 -22 2 12 2 32 0 45 -2 12 -4 2 -4 -23z"/>
<path d="M6995 3290 c-4 -12 -5 -24 -2 -27 3 -2 8 5 12 17 4 12 5 24 2 27 -3
2 -8 -5 -12 -17z"/>
<path d="M1011 3185 c0 -22 7 -49 15 -60 16 -19 16 -19 8 5 -4 14 -11 41 -15
60 l-7 35 -1 -40z"/>
<path d="M6960 3110 c0 -5 5 -10 10 -10 6 0 10 5 10 10 0 6 -4 10 -10 10 -5 0
-10 -4 -10 -10z"/>
<path d="M1030 3070 c0 -5 5 -10 11 -10 5 0 7 5 4 10 -3 6 -8 10 -11 10 -2 0
-4 -4 -4 -10z"/>
<path d="M6947 3033 c-10 -19 -18 -67 -9 -58 10 11 25 65 18 65 -3 0 -7 -3 -9
-7z"/>
<path d="M1051 2978 c-1 -15 4 -30 9 -33 6 -3 10 -17 10 -31 0 -13 4 -24 9
-24 9 0 5 18 -19 90 l-8 25 -1 -27z"/>
<path d="M6920 2934 c0 -8 5 -12 10 -9 6 4 8 11 5 16 -9 14 -15 11 -15 -7z"/>
<path d="M6902 2861 c-7 -19 -10 -36 -7 -39 6 -7 26 49 22 62 -2 6 -9 -5 -15
-23z"/>
<path d="M1091 2834 c0 -11 3 -14 6 -6 3 7 2 16 -1 19 -3 4 -6 -2 -5 -13z"/>
<path d="M1106 2785 c8 -34 12 -41 20 -33 3 4 -2 19 -10 35 l-16 28 6 -30z"/>
<path d="M6880 2784 c0 -8 5 -12 10 -9 6 3 10 10 10 16 0 5 -4 9 -10 9 -5 0
-10 -7 -10 -16z"/>
<path d="M6865 2740 c-3 -5 -1 -10 4 -10 6 0 11 5 11 10 0 6 -2 10 -4 10 -3 0
-8 -4 -11 -10z"/>
<path d="M1131 2714 c0 -11 3 -14 6 -6 3 7 2 16 -1 19 -3 4 -6 -2 -5 -13z"/>
<path d="M6850 2695 c-6 -15 -8 -30 -6 -33 3 -3 10 8 16 23 6 15 8 30 6 33 -3
3 -10 -8 -16 -23z"/>
<path d="M1153 2638 c7 -17 18 -33 25 -36 8 -2 6 8 -5 32 -22 44 -38 48 -20 4z"/>
<path d="M6820 2630 c0 -5 5 -10 10 -10 6 0 10 5 10 10 0 6 -4 10 -10 10 -5 0
-10 -4 -10 -10z"/>
<path d="M6803 2577 c-15 -30 -23 -57 -18 -57 7 0 38 70 33 75 -3 3 -9 -5 -15
-18z"/>
<path d="M1191 2564 c-1 -18 26 -79 97 -221 85 -169 97 -191 115 -211 7 -9 28
-43 46 -74 18 -32 37 -58 42 -58 5 0 9 -8 9 -19 0 -20 58 -86 68 -77 3 4 -6
19 -20 34 -14 15 -33 42 -42 60 -9 17 -21 32 -27 32 -6 0 -8 4 -5 9 3 4 -14
37 -39 72 -24 35 -65 107 -92 159 -26 52 -50 97 -53 100 -4 4 -28 52 -82 170
-9 19 -17 30 -17 24z"/>
<path d="M6771 2497 c0 -10 -8 -29 -17 -43 -9 -13 -14 -27 -12 -30 10 -10 39
48 35 69 -3 16 -5 17 -6 4z"/>
<path d="M6706 2361 c-15 -28 -22 -51 -16 -51 12 0 55 88 47 96 -3 3 -17 -17
-31 -45z"/>
<path d="M6309 1754 c-19 -20 -70 -73 -114 -119 -44 -46 -89 -93 -100 -105
-11 -12 -42 -41 -70 -65 -27 -24 -47 -47 -42 -51 4 -4 26 10 50 33 23 22 50
43 60 46 9 4 20 15 24 24 6 16 74 91 206 225 20 21 37 41 37 43 0 14 -21 1
-51 -31z"/>
<path d="M5930 1385 c-18 -19 -38 -35 -43 -35 -6 0 -31 -18 -56 -40 -112 -99
-178 -151 -211 -166 -197 -92 -286 -144 -248 -144 9 0 20 5 23 10 4 6 23 17
43 26 20 8 47 25 59 36 13 12 23 19 23 15 0 -3 19 3 43 13 23 11 54 20 69 20
19 0 37 12 63 44 19 24 54 56 78 72 23 16 76 58 117 94 41 35 77 65 79 67 1 1
1 7 -1 13 -2 6 -19 -5 -38 -25z"/>
<path d="M5316 992 c-3 -5 -45 -26 -93 -47 -100 -44 -98 -43 -91 -51 3 -3 14
-1 25 4 10 6 47 22 83 38 72 30 123 64 97 64 -9 0 -18 -4 -21 -8z"/>
<path d="M2860 900 c0 -5 5 -10 11 -10 5 0 7 5 4 10 -3 6 -8 10 -11 10 -2 0
-4 -4 -4 -10z"/>
<path d="M5055 875 c-27 -13 -74 -29 -102 -36 -29 -7 -53 -16 -53 -22 0 -5 8
-6 17 -3 9 4 36 11 59 16 50 11 134 50 134 62 0 4 -1 8 -2 7 -2 0 -25 -11 -53
-24z"/>
<path d="M2900 880 c0 -5 9 -10 19 -10 11 0 23 -4 26 -10 8 -12 25 -13 25 -1
0 5 -14 14 -31 20 -39 13 -39 13 -39 1z"/>
<path d="M3020 839 c42 -19 80 -28 80 -20 0 5 -12 11 -27 15 -16 3 -39 8 -53
11 l-25 6 25 -12z"/>
<path d="M3148 803 c6 -2 18 -2 25 0 6 3 1 5 -13 5 -14 0 -19 -2 -12 -5z"/>
<path d="M4848 803 c7 -3 16 -2 19 1 4 3 -2 6 -13 5 -11 0 -14 -3 -6 -6z"/>
<path d="M4785 793 c-11 -2 -55 -18 -97 -34 -43 -16 -90 -29 -105 -29 -22 0
-25 -2 -13 -10 27 -18 86 -11 123 14 19 13 52 30 73 37 60 20 72 34 19 22z"/>
<path d="M3190 786 c0 -2 11 -6 25 -8 14 -3 25 -1 25 3 0 5 -11 9 -25 9 -14 0
-25 -2 -25 -4z"/>
<path d="M3345 751 c3 -5 19 -11 37 -14 18 -3 50 -10 71 -15 21 -6 39 -6 43
-1 3 5 -7 9 -21 9 -15 0 -34 4 -43 9 -24 12 -93 21 -87 12z"/>
<path d="M4528 723 c7 -3 16 -2 19 1 4 3 -2 6 -13 5 -11 0 -14 -3 -6 -6z"/>
<path d="M3576 709 c3 -5 29 -9 58 -9 28 0 56 -4 62 -9 11 -11 214 -19 214 -8
0 4 -41 7 -91 7 -50 0 -98 4 -107 9 -24 12 -143 21 -136 10z"/>
<path d="M4340 708 c-30 -5 -118 -13 -195 -18 -76 -6 -144 -15 -150 -21 -7 -8
10 -9 60 -5 39 3 108 8 155 12 47 3 89 10 95 15 5 5 30 9 56 9 26 0 51 5 54
10 7 11 4 11 -75 -2z"/>
</g>
</svg>
